<?xml version="1.0" standalone="no"?>
<!DOCTYPE svg PUBLIC "-//W3C//DTD SVG 20010904//EN"
 "http://www.w3.org/TR/2001/REC-SVG-20010904/DTD/svg10.dtd">
<svg version="1.0" xmlns="http://www.w3.org/2000/svg"
 width="750.000000pt" height="400.000000pt" viewBox="0 0 750.000000 400.000000"
 preserveAspectRatio="xMidYMid meet">

<g transform="translate(0.000000,400.000000) scale(0.100000,-0.100000)"
fill="#000000" stroke="none">
<path d="M0 2000 l0 -2000 2434 0 2435 0 4 23 4 22 2 -22 c1 -21 6 -23 59 -23
32 0 63 5 70 12 9 9 12 9 12 0 0 -8 48 -11 175 -11 96 1 173 5 170 9 -6 9 12
23 33 26 10 2 10 -1 1 -12 -6 -7 -16 -11 -22 -7 -6 3 -7 1 -3 -5 10 -17 556
-17 556 0 0 10 2 10 9 -1 7 -11 9 -11 14 0 4 10 6 10 6 2 1 -19 527 -19 534 0
4 9 6 9 6 -1 1 -10 105 -12 501 -12 l500 1 0 1999 0 2000 -395 0 c-388 0 -395
0 -395 -20 0 -11 -4 -20 -10 -20 -5 0 -10 -8 -10 -17 0 -10 -11 -31 -25 -47
-14 -16 -25 -34 -25 -41 0 -7 -9 -22 -20 -35 -11 -12 -22 -37 -26 -55 -4 -26
-12 -35 -37 -42 -23 -6 -34 -17 -41 -41 -6 -23 -18 -35 -41 -43 -25 -9 -32
-18 -32 -37 0 -14 -10 -34 -22 -43 -11 -9 -21 -22 -21 -28 0 -6 -7 -11 -15
-11 -8 0 -15 -4 -15 -8 0 -12 -135 -152 -147 -152 -6 0 -13 -10 -17 -23 -3
-13 -15 -34 -26 -48 -22 -27 -114 -130 -147 -165 -12 -13 -27 -40 -35 -61 -7
-20 -30 -53 -50 -73 -21 -19 -38 -39 -38 -43 0 -4 -9 -17 -20 -29 -11 -12 -20
-30 -20 -40 0 -10 -4 -18 -10 -18 -18 0 -61 -52 -67 -81 -3 -16 -9 -29 -14
-29 -5 0 -9 -6 -9 -12 0 -7 -12 -24 -25 -37 -14 -13 -25 -29 -25 -37 0 -7 -8
-18 -19 -23 -10 -6 -22 -27 -26 -48 -7 -37 -31 -63 -70 -73 -12 -4 -26 -23
-37 -52 -9 -26 -33 -62 -53 -82 -19 -19 -35 -42 -35 -49 0 -15 -74 -97 -88
-97 -4 0 -16 -15 -27 -33 -10 -17 -24 -37 -29 -44 -6 -6 -22 -28 -36 -47 -14
-20 -30 -36 -37 -36 -6 0 -17 -16 -23 -35 -6 -19 -15 -35 -19 -35 -4 0 -13
-11 -19 -25 -6 -14 -18 -25 -27 -25 -8 0 -24 -14 -34 -31 -12 -20 -21 -26 -24
-17 -3 7 -6 3 -6 -9 -1 -13 -5 -23 -11 -23 -5 0 -10 -11 -10 -25 0 -16 -6 -25
-16 -25 -8 0 -12 -4 -9 -10 3 -5 2 -10 -3 -10 -5 0 -17 -20 -26 -45 -10 -25
-23 -45 -30 -45 -13 0 -43 -38 -66 -85 -8 -16 -19 -35 -25 -42 -5 -7 -16 -19
-22 -27 -7 -8 -13 -20 -13 -27 0 -6 -9 -24 -21 -40 -11 -16 -25 -45 -30 -64
-6 -19 -14 -35 -19 -35 -6 0 -10 -6 -10 -14 0 -8 -7 -16 -15 -20 -8 -3 -15
-11 -15 -18 0 -7 -11 -22 -25 -32 -14 -10 -25 -27 -25 -37 0 -10 -7 -24 -15
-33 -8 -8 -15 -19 -15 -24 0 -5 -18 -28 -40 -50 -22 -22 -40 -46 -40 -53 0 -8
-11 -27 -25 -43 -14 -16 -25 -33 -25 -37 0 -4 -6 -14 -13 -21 -7 -7 -23 -28
-36 -46 -12 -18 -26 -30 -30 -27 -5 2 -14 -8 -22 -22 -19 -37 -71 -93 -86 -93
-7 0 -13 -11 -13 -24 0 -25 -44 -80 -72 -89 -10 -4 -18 -16 -18 -27 0 -11 -6
-20 -14 -20 -8 0 -16 -6 -19 -12 -2 -7 -3 5 -2 27 1 22 -3 46 -8 52 -6 9 -4
15 9 20 32 11 46 43 19 43 -8 0 -15 5 -15 11 0 5 3 8 8 6 4 -3 8 6 8 19 1 15
-4 24 -13 24 -8 0 -21 7 -29 15 -9 8 -21 15 -27 15 -17 -1 -52 -31 -60 -52 -3
-10 -14 -18 -24 -17 -15 0 -15 2 -3 7 8 4 16 22 18 40 3 30 1 32 -27 32 -17 0
-31 -4 -31 -9 0 -5 -15 -8 -32 -7 -18 0 -33 -2 -33 -5 0 -3 -6 -13 -13 -22 -8
-9 -11 -21 -7 -27 3 -6 -3 -10 -15 -10 -11 0 -23 -7 -26 -15 -6 -14 -8 -13
-19 2 -8 10 -17 15 -21 10 -4 -4 -2 -7 4 -7 7 0 3 -9 -9 -21 -14 -14 -19 -29
-16 -45 2 -13 0 -21 -4 -18 -5 3 -9 0 -9 -7 0 -7 -11 -10 -29 -7 -17 2 -28 1
-25 -4 3 -4 -3 -5 -12 -1 -14 5 -16 3 -11 -11 4 -10 7 -20 7 -22 0 -2 7 -4 15
-4 8 0 14 6 12 12 -3 18 35 20 57 3 16 -12 17 -18 8 -27 -10 -10 -15 -10 -22
2 -8 12 -10 12 -10 1 0 -10 -11 -12 -45 -9 -52 6 -58 -3 -14 -25 18 -8 27 -17
20 -21 -6 -4 -11 -16 -11 -27 0 -14 -7 -19 -25 -19 -18 0 -25 5 -25 18 0 26
-11 34 -24 18 -16 -20 -67 -30 -60 -12 9 22 -15 30 -36 11 -10 -9 -23 -14 -29
-11 -5 4 -13 1 -16 -5 -4 -5 -13 -8 -21 -5 -8 3 -35 2 -60 -3 -43 -8 -46 -7
-56 18 l-11 26 -7 -25 c-5 -14 -8 -20 -9 -14 -1 6 -12 9 -26 6 -36 -6 -31 10
10 32 19 11 35 23 35 28 0 5 4 6 10 3 5 -3 10 1 10 9 0 9 6 13 14 10 8 -3 12
-13 9 -25 -8 -28 23 -24 52 7 14 15 25 36 25 46 0 11 5 16 10 13 6 -4 17 10
26 30 16 39 12 57 -8 37 -7 -7 -24 -12 -39 -12 -22 0 -26 4 -22 20 3 11 12 20
19 20 8 0 19 12 24 26 8 20 6 29 -8 42 -10 10 -16 16 -13 15 2 -2 10 2 17 8 9
7 10 18 4 34 -5 13 -6 26 -3 29 3 3 0 12 -6 20 -7 9 -9 21 -5 28 13 21 15 56
4 63 -5 3 -10 1 -10 -4 0 -6 -7 -11 -16 -11 -8 0 -13 4 -10 9 19 30 -26 54
-53 29 -11 -11 -12 -9 -6 10 6 21 -3 26 -45 24 -3 0 -14 12 -24 26 -20 27 -20
27 0 10 12 -10 24 -18 29 -18 4 0 1 8 -6 18 -12 15 -12 16 2 5 8 -7 25 -10 36
-7 15 4 22 1 25 -12 3 -16 4 -16 18 -1 33 36 40 47 40 62 0 8 9 15 20 15 11 0
20 5 20 10 0 6 9 10 20 10 11 0 20 5 20 10 0 6 7 10 15 10 20 0 65 45 65 65 0
8 5 15 10 15 6 0 10 -9 10 -20 0 -11 5 -20 10 -20 6 0 10 10 10 23 0 13 9 33
20 45 11 12 20 28 20 37 0 8 6 15 13 15 8 0 22 18 32 40 10 22 24 40 32 40 19
0 63 45 63 65 0 8 5 15 10 15 6 0 10 14 10 30 0 23 4 30 20 30 15 0 20 7 20
26 0 17 14 39 40 64 22 21 40 43 40 49 0 5 9 13 20 16 14 4 20 15 20 36 0 22
5 29 19 29 13 0 20 10 25 33 5 23 9 28 15 18 7 -11 10 -9 15 7 4 12 16 24 27
27 11 4 19 15 19 28 0 13 9 29 20 37 11 8 20 22 20 32 0 10 7 18 15 18 8 0 15
9 15 20 0 19 65 90 82 90 4 0 8 7 8 15 0 8 7 15 16 15 20 0 44 24 44 44 0 9 5
16 10 16 6 0 10 7 10 16 0 9 14 29 30 44 16 15 30 35 30 44 0 9 5 16 10 16 6
0 10 9 10 20 0 13 7 20 20 20 13 0 20 7 20 20 0 13 7 20 20 20 13 0 20 7 20
18 0 22 32 62 49 62 6 0 11 6 11 14 0 8 9 18 20 21 11 3 20 15 20 26 0 10 5
19 10 19 6 0 10 9 10 20 0 11 6 20 14 20 7 0 19 13 26 29 6 16 18 32 26 35 8
3 14 12 14 21 0 8 9 15 20 15 15 0 20 7 20 25 0 14 9 35 20 47 11 12 20 30 20
40 0 10 7 18 15 18 8 0 24 19 36 42 12 23 41 61 65 85 24 23 44 51 44 62 0 11
9 22 20 26 13 4 20 15 20 31 0 17 5 24 20 24 16 0 20 7 20 30 0 23 4 30 20 30
13 0 20 7 20 20 0 13 7 20 20 20 13 0 20 7 20 20 0 13 7 20 20 20 16 0 20 7
20 30 0 23 4 30 20 30 11 0 20 5 20 10 0 6 9 10 20 10 13 0 20 7 20 20 0 13 7
20 20 20 16 0 20 7 20 30 0 23 4 30 20 30 15 0 20 7 20 26 0 17 4 24 13 21 17
-6 87 56 87 77 0 9 5 16 10 16 6 0 10 9 10 20 0 12 7 20 16 20 20 0 44 24 44
44 0 9 8 16 20 16 13 0 20 7 20 20 0 13 7 20 20 20 13 0 20 7 20 20 0 13 7 20
20 20 11 0 20 7 20 15 0 8 4 15 10 15 5 0 20 16 32 35 13 19 31 37 41 41 9 3
17 12 17 20 0 8 9 14 20 14 16 0 20 7 20 30 l0 30 -2930 0 -2930 0 0 -2000z
m3474 -816 c3 -8 2 -12 -4 -9 -6 3 -10 10 -10 16 0 14 7 11 14 -7z m-359 -194
c3 -5 -1 -10 -10 -10 -9 0 -13 5 -10 10 3 6 8 10 10 10 2 0 7 -4 10 -10z m365
-210 c0 -5 -4 -10 -10 -10 -5 0 -10 5 -10 10 0 6 5 10 10 10 6 0 10 -4 10 -10z
m520 0 c0 -5 -4 -10 -10 -10 -5 0 -10 5 -10 10 0 6 5 10 10 10 6 0 10 -4 10
-10z m100 -32 c-1 -9 -5 -7 -14 4 -7 10 -16 15 -19 11 -4 -3 -7 -2 -7 4 0 18
12 22 26 8 8 -7 14 -20 14 -27z m-885 22 c-3 -5 -12 -10 -18 -10 -7 0 -6 4 3
10 19 12 23 12 15 0z m709 -21 c-3 -6 0 -15 7 -20 11 -7 10 -9 -3 -9 -11 0
-18 8 -18 20 0 11 5 20 11 20 5 0 7 -5 3 -11z m271 -8 c-3 -6 -14 -10 -23 -10
-15 1 -15 2 1 6 9 2 17 9 17 15 0 6 3 9 6 5 3 -3 3 -10 -1 -16z m-245 -40 c0
-13 -39 -21 -47 -9 -3 6 -1 8 5 4 6 -3 13 -2 17 4 8 12 25 13 25 1z m-740 -31
c0 -5 -5 -10 -11 -10 -5 0 -7 5 -4 10 3 6 8 10 11 10 2 0 4 -4 4 -10z m746
-37 c-10 -10 -19 5 -10 18 6 11 8 11 12 0 2 -7 1 -15 -2 -18z m161 11 c-3 -3
-12 -4 -19 -1 -8 3 -5 6 6 6 11 1 17 -2 13 -5z m-811 -52 c-8 -7 -46 9 -46 19
0 6 5 7 10 4 6 -3 10 0 10 7 1 8 6 6 15 -6 8 -11 13 -21 11 -24z m39 18 c-3
-5 -1 -10 4 -10 6 0 11 -4 11 -10 0 -5 -7 -10 -15 -10 -15 0 -21 21 -8 33 10
10 15 8 8 -3z m926 -23 c-10 -9 -11 -8 -5 6 3 10 9 15 12 12 3 -3 0 -11 -7
-18z m-214 -9 c-3 -8 -6 -5 -6 6 -1 11 2 17 5 13 3 -3 4 -12 1 -19z m-887 8
c0 -3 -4 -8 -10 -11 -5 -3 -10 -1 -10 4 0 6 5 11 10 11 6 0 10 -2 10 -4z m865
-26 c3 -5 1 -10 -4 -10 -6 0 -11 5 -11 10 0 6 2 10 4 10 3 0 8 -4 11 -10z
m-765 -15 c0 -8 -2 -15 -4 -15 -2 0 -6 7 -10 15 -3 8 -1 15 4 15 6 0 10 -7 10
-15z m570 -3 c0 -5 -6 -17 -14 -27 -13 -18 -14 -18 -26 4 -11 21 -10 22 9 16
12 -4 21 -2 21 4 0 6 2 11 5 11 3 0 5 -4 5 -8z m-89 -52 c5 0 13 10 18 23 l9
22 12 -27 c8 -16 18 -24 26 -21 9 3 12 0 9 -8 -3 -8 -17 -15 -32 -16 -18 -1
-22 2 -12 7 7 5 10 12 6 17 -9 8 -28 -17 -21 -28 2 -4 18 -10 34 -14 17 -4 30
-11 30 -16 0 -5 6 -9 14 -9 9 0 12 -7 9 -20 -3 -11 0 -20 6 -20 6 0 11 7 11
17 0 13 4 11 20 -7 15 -17 17 -26 9 -37 -18 -21 -97 -14 -83 8 3 5 1 9 -5 9
-5 0 -13 -5 -16 -10 -4 -6 -16 -8 -27 -4 -17 5 -20 3 -14 -12 6 -17 6 -17 -12
-1 -10 9 -26 17 -35 17 -27 0 -19 20 12 31 22 8 29 16 27 33 -3 33 -17 51 -26
36 -14 -23 -170 -41 -170 -20 0 6 7 10 15 10 8 0 15 7 15 15 0 9 6 12 15 9 8
-4 15 -1 15 6 0 7 6 10 14 7 8 -3 17 1 20 10 4 8 12 13 19 10 49 -18 57 -18
50 -1 -4 12 -3 15 5 10 7 -4 13 -1 13 6 1 7 4 3 6 -9 2 -13 9 -23 14 -23z
m-381 -38 c-25 -4 -35 2 -26 17 5 7 13 7 27 -2 20 -12 20 -12 -1 -15z m530 8
c0 -12 -7 -20 -17 -20 -14 0 -15 2 -4 9 7 5 10 14 7 20 -4 6 -2 11 3 11 6 0
11 -9 11 -20z m-295 -101 c9 1 10 -4 7 -28 -3 -14 -53 -23 -67 -11 -10 8 -7
16 14 39 20 22 27 25 31 14 3 -8 10 -14 15 -14z m73 19 c-3 -7 6 -21 19 -31
29 -23 29 -33 1 -48 -16 -8 -23 -9 -26 -1 -2 6 -9 9 -16 6 -6 -2 -12 3 -12 13
0 10 -4 28 -8 40 -5 16 -2 23 11 26 31 8 35 7 31 -5z m117 -48 c3 -5 2 -10 -4
-10 -5 0 -13 5 -16 10 -3 6 -2 10 4 10 5 0 13 -4 16 -10z m105 -49 c0 -5 3
-16 6 -25 5 -12 0 -16 -21 -16 -20 0 -26 -4 -21 -15 3 -9 0 -15 -9 -15 -8 0
-15 7 -15 15 0 8 5 15 10 15 6 0 10 8 10 18 0 15 2 15 11 2 9 -12 10 -11 6 8
-3 15 0 22 9 22 8 0 14 -4 14 -9z m-549 -41 c6 0 7 5 4 10 -11 18 7 10 26 -11
18 -21 17 -39 -1 -39 -13 0 -50 41 -49 54 0 6 3 5 6 -1 2 -7 9 -13 14 -13z
m479 10 c0 -5 -7 -10 -16 -10 -14 0 -14 -3 -4 -15 8 -10 9 -15 2 -15 -6 0 -16
10 -23 21 -7 13 -7 19 -1 15 6 -3 13 -2 17 4 8 13 25 13 25 0z m-413 -32 c-3
-8 -6 -5 -6 6 -1 11 2 17 5 13 3 -3 4 -12 1 -19z m178 1 c5 -14 13 -19 25 -16
13 3 18 -1 18 -19 0 -13 -4 -21 -9 -18 -12 7 -11 -3 3 -26 7 -10 9 -22 6 -25
-10 -10 -48 18 -48 36 0 9 -7 33 -15 53 -13 31 -13 36 -1 36 8 0 18 -9 21 -21z
m205 -19 c12 -8 11 -10 -5 -10 -11 0 -31 -7 -43 -16 -12 -8 -27 -12 -32 -9 -6
3 -10 2 -10 -3 0 -13 -27 -23 -44 -16 -8 3 -12 13 -9 24 6 22 33 35 33 16 0
-18 41 -9 53 11 9 15 36 17 57 3z m-9 -65 c14 1 31 5 39 10 9 6 9 2 -3 -14
-16 -23 -55 -51 -92 -65 -11 -4 -16 -4 -12 0 4 4 2 13 -5 21 -8 10 -6 19 12
38 13 14 26 21 29 17 3 -5 17 -8 32 -7z m1689 -20 c0 -2 -6 -5 -13 -8 -8 -3
-14 1 -14 8 0 7 6 11 14 8 7 -3 13 -6 13 -8z m-1636 -24 c3 -5 -1 -14 -9 -21
-8 -7 -15 -8 -15 -3 0 6 -11 8 -25 5 -14 -2 -25 -8 -25 -13 0 -5 -5 -9 -11 -9
-18 0 2 20 34 34 39 18 44 18 51 7z m1991 -1 c3 -5 1 -10 -4 -10 -6 0 -11 5
-11 10 0 6 2 10 4 10 3 0 8 -4 11 -10z m842 -22 c-3 -8 -6 -5 -6 6 -1 11 2 17
5 13 3 -3 4 -12 1 -19z m-1692 -19 c-4 -11 -2 -19 4 -19 6 0 11 5 11 10 0 6 6
10 13 10 6 -1 1 -9 -12 -20 -28 -24 -46 -17 -31 11 6 11 8 25 4 31 -4 7 -3 8
5 4 6 -4 9 -16 6 -27z m930 21 c3 -6 -1 -7 -9 -4 -18 7 -21 14 -7 14 6 0 13
-4 16 -10z m-720 -40 c4 -7 13 -7 26 0 10 6 19 8 19 6 0 -16 -37 -23 -55 -10
-10 8 -14 14 -8 14 7 0 15 -5 18 -10z"/>
<path d="M3438 1133 c7 -3 16 -2 19 1 4 3 -2 6 -13 5 -11 0 -14 -3 -6 -6z"/>
<path d="M3733 756 c1 -12 8 -26 16 -32 10 -8 11 -13 3 -18 -15 -9 -16 -26 -2
-26 6 0 10 5 10 11 0 7 6 17 14 23 12 9 10 15 -14 37 -27 24 -28 24 -27 5z"/>
<path d="M3698 660 c9 -16 19 -25 21 -19 2 7 7 6 12 -2 7 -11 9 -10 9 4 0 11
-9 21 -20 24 -11 3 -20 9 -20 14 0 5 -4 9 -10 9 -5 0 -1 -13 8 -30z"/>
<path d="M3460 609 c0 -11 4 -18 10 -14 5 3 7 12 3 20 -7 21 -13 19 -13 -6z"/>
</g>
</svg>
