<?xml version="1.0" standalone="no"?>
<!DOCTYPE svg PUBLIC "-//W3C//DTD SVG 20010904//EN"
 "http://www.w3.org/TR/2001/REC-SVG-20010904/DTD/svg10.dtd">
<svg version="1.0" xmlns="http://www.w3.org/2000/svg"
 width="30" height="30" viewBox="0 0 480.000000 480.000000"
 preserveAspectRatio="xMidYMid meet">

<g transform="translate(0.000000,480.000000) scale(0.100000,-0.100000)"
fill="#000000" stroke="none">
<path d="M180 4780 c-38 -13 -68 -33 -101 -68 -86 -89 -79 119 -79 -2312 0
-2445 -8 -2225 84 -2316 89 -90 -4 -84 1318 -84 l1158 0 0 930 0 930 -315 0
-315 0 2 362 3 363 312 3 313 2 0 298 c0 427 17 541 111 729 102 207 276 349
513 417 139 41 277 50 557 37 134 -6 260 -14 281 -17 l38 -7 0 -323 0 -324
-193 0 c-207 0 -334 -12 -392 -35 -66 -28 -113 -81 -135 -152 -18 -59 -20 -93
-20 -344 l0 -279 355 0 c313 0 355 -2 355 -15 0 -9 -20 -171 -45 -361 -25
-189 -45 -346 -45 -349 0 -3 -139 -5 -310 -5 l-310 0 0 -930 0 -930 618 0
c715 0 692 -2 778 84 92 91 84 -129 84 2316 0 2445 8 2225 -84 2316 -91 92
130 84 -2320 84 -2093 -1 -2163 -1 -2216 -20z"/>
</g>
</svg>
