<?xml version="1.0" standalone="no"?>
<!DOCTYPE svg PUBLIC "-//W3C//DTD SVG 20010904//EN"
 "http://www.w3.org/TR/2001/REC-SVG-20010904/DTD/svg10.dtd">
<svg version="1.0" xmlns="http://www.w3.org/2000/svg"
 width="30" height="30" viewBox="0 0 222.000000 227.000000"
 preserveAspectRatio="xMidYMid meet">

<g transform="translate(0.000000,227.000000) scale(0.100000,-0.100000)"
fill="#000000" stroke="none">
<path d="M520 2230 c-133 -16 -240 -69 -336 -164 -68 -68 -105 -127 -143 -225
-25 -66 -25 -68 -29 -440 -2 -266 0 -371 7 -366 6 3 14 -2 18 -12 6 -16 8 -15
14 7 l7 25 1 -27 c1 -19 14 -37 51 -65 27 -21 49 -43 50 -50 0 -7 7 -10 15 -7
11 5 15 -1 15 -20 0 -18 4 -24 14 -20 9 4 16 -3 19 -18 2 -13 5 144 6 347 1
291 5 384 16 434 45 189 210 346 399 380 77 14 868 15 956 1 141 -22 296 -132
362 -256 56 -104 58 -127 58 -634 0 -284 -5 -482 -11 -510 -37 -162 -177 -311
-338 -361 -77 -23 -149 -28 -531 -30 -162 -1 -286 -4 -276 -6 15 -4 16 -7 5
-15 -10 -7 -8 -8 7 -3 15 4 23 0 28 -12 12 -36 51 -78 69 -75 9 2 17 -1 17 -7
0 -5 -8 -12 -17 -14 -11 -3 -7 -5 10 -6 16 0 26 -5 22 -11 -3 -6 0 -10 7 -11
7 0 4 -4 -7 -9 -12 -5 134 -9 349 -9 407 -1 437 2 551 62 33 18 92 63 132 103
85 84 144 194 163 302 7 46 10 254 8 672 l-3 605 -28 70 c-38 96 -78 154 -151
222 -69 65 -154 114 -242 140 -53 15 -122 17 -629 19 -314 1 -599 -2 -635 -6z"/>
<path d="M599 1857 c-103 -43 -172 -111 -212 -209 -21 -50 -22 -71 -25 -403
-4 -365 3 -555 20 -555 22 0 98 -99 91 -119 -3 -12 -2 -13 4 -3 7 9 18 6 46
-15 20 -16 34 -33 32 -40 -2 -7 1 -10 8 -8 7 3 26 -14 42 -36 17 -23 39 -45
50 -49 l20 -9 -20 -1 c-14 0 -10 -5 15 -16 28 -12 32 -17 20 -25 -10 -6 155
-8 460 -7 l475 3 48 24 c75 37 142 104 179 179 l33 67 3 450 c4 478 1 519 -43
605 -30 59 -96 122 -165 157 l-55 28 -485 2 -485 3 -56 -23z m1044 -166 c39
-15 57 -40 57 -79 -1 -109 -146 -123 -165 -16 -7 36 12 75 45 91 30 15 32 15
63 4z m-427 -162 c218 -40 384 -238 384 -458 -1 -272 -231 -487 -500 -468
-230 16 -409 190 -435 423 -20 175 85 368 248 455 100 53 193 68 303 48z"/>
<path d="M1079 1399 c-144 -22 -255 -131 -277 -274 -27 -169 70 -328 230 -376
131 -40 253 -6 347 96 61 68 86 134 85 231 0 199 -185 354 -385 323z"/>
<path d="M370 659 c0 -5 5 -7 10 -4 6 3 10 8 10 11 0 2 -4 4 -10 4 -5 0 -10
-5 -10 -11z"/>
</g>
</svg>
