<?xml version="1.0" standalone="no"?>
<!DOCTYPE svg PUBLIC "-//W3C//DTD SVG 20010904//EN"
 "http://www.w3.org/TR/2001/REC-SVG-20010904/DTD/svg10.dtd">
<svg version="1.0" xmlns="http://www.w3.org/2000/svg"
 width="182.000000pt" height="168.000000pt" viewBox="0 0 182.000000 168.000000"
 preserveAspectRatio="xMidYMid meet">

<g transform="translate(0.000000,168.000000) scale(0.100000,-0.100000)"
fill="#000000" stroke="none">
<path d="M0 840 l0 -840 910 0 910 0 0 840 0 840 -910 0 -910 0 0 -840z m1029
737 c24 -56 22 -89 -3 -54 -14 18 -76 24 -76 7 0 -5 -7 -10 -15 -10 -21 0 -19
5 16 67 17 30 36 52 42 50 7 -2 23 -29 36 -60z m-179 44 c0 -4 -19 -12 -42
-17 -58 -12 -66 -39 -9 -31 22 3 41 2 41 -3 0 -10 -26 -20 -51 -20 -11 0 -19
-7 -19 -16 0 -13 8 -15 50 -9 31 4 50 3 50 -3 0 -5 -21 -13 -46 -17 -26 -3
-52 -9 -59 -11 -8 -3 -16 14 -24 52 -6 32 -9 60 -6 62 5 5 69 19 98 21 9 0 17
-3 17 -8z m336 -22 c48 -12 61 -32 18 -27 -24 3 -28 -2 -41 -46 -10 -34 -18
-45 -25 -38 -7 7 -7 20 1 43 15 45 14 56 -9 62 -11 3 -20 11 -20 17 0 7 7 10
16 6 9 -4 36 -11 60 -17z m-528 -48 c3 -10 -1 -12 -15 -9 -21 6 -53 -7 -53
-22 0 -4 21 -8 48 -7 41 2 47 -1 50 -20 6 -41 -83 -73 -96 -34 -3 10 1 12 18
8 25 -6 60 7 60 24 0 6 -17 8 -46 3 -34 -5 -48 -3 -55 7 -13 20 -11 26 13 49
25 23 69 24 76 1z m-174 -82 c-12 -14 -15 -24 -9 -33 38 -51 47 -68 40 -74 -4
-4 -22 11 -41 32 -32 37 -35 38 -52 23 -10 -10 -22 -14 -26 -10 -9 9 73 82 93
83 11 0 9 -5 -5 -21z m941 -89 c-5 -8 -11 -8 -17 -2 -6 6 -7 16 -3 22 5 8 11
8 17 2 6 -6 7 -16 3 -22z m-1075 -31 c0 -6 -11 -25 -26 -44 -32 -43 -13 -61
21 -19 30 38 44 24 16 -15 -29 -40 -7 -54 25 -15 13 16 23 32 24 37 0 11 20 9
20 -3 0 -14 -53 -89 -63 -90 -10 0 -97 59 -97 66 0 3 15 25 33 49 32 44 47 55
47 34z m1268 -88 c30 -53 28 -77 -5 -90 -16 -6 -36 -16 -45 -23 -9 -7 -21 -9
-25 -4 -4 4 0 13 10 20 21 16 21 25 -2 56 -16 20 -22 22 -34 12 -12 -10 -17
-10 -23 -1 -4 6 -1 15 7 20 8 4 28 17 44 28 42 28 49 26 73 -18z m-1363 -149
c2 -2 21 6 44 17 54 28 45 0 -10 -31 l-40 -22 26 -13 c24 -13 34 -33 16 -33
-4 0 -31 10 -59 21 -52 22 -63 45 -16 33 l25 -6 -15 36 c-8 20 -12 44 -9 53 5
14 10 10 21 -17 8 -19 15 -36 17 -38z m1449 -56 c17 -35 18 -42 5 -64 -43 -76
-119 -42 -119 53 0 40 20 56 65 52 24 -2 34 -10 49 -41z m-1504 -81 c0 -3 -7
-17 -16 -30 -20 -31 -12 -71 17 -80 41 -13 65 40 37 85 -18 29 1 39 23 11 23
-28 24 -41 5 -86 -13 -30 -20 -35 -50 -35 -50 0 -69 23 -63 78 3 24 11 48 18
53 16 10 29 12 29 4z m1511 -104 c29 -23 33 -91 7 -118 -22 -21 -36 -9 -20 17
7 11 12 33 12 50 0 24 -5 31 -27 36 -19 5 -30 2 -40 -12 -14 -18 -13 -30 3
-84 7 -25 7 -25 -14 -6 -31 27 -29 80 3 111 29 30 45 31 76 6z m-1442 -127
c39 -50 17 -124 -37 -124 -33 0 -45 8 -61 37 -42 80 44 156 98 87z m1400 -75
c45 -13 60 -44 16 -33 -29 7 -29 7 -11 -38 9 -19 11 -40 6 -47 -5 -10 -12 -3
-21 23 -7 20 -15 36 -19 36 -3 0 -20 -9 -38 -20 -37 -23 -42 -24 -42 -10 0 6
20 23 45 39 l46 29 -31 11 c-19 6 -29 15 -25 21 4 6 13 9 20 6 7 -2 31 -10 54
-17z m-1344 -98 c3 -6 -2 -14 -11 -19 -15 -9 -16 -13 -4 -42 11 -26 17 -30 36
-26 12 3 25 2 29 -4 7 -12 -92 -63 -106 -54 -6 4 -19 25 -29 47 -21 46 -12 82
19 74 10 -2 23 4 30 14 12 21 27 24 36 10z m1261 -81 c24 -17 44 -34 44 -37 0
-11 -55 -93 -62 -93 -14 0 -8 21 13 52 14 20 18 33 11 40 -6 6 -17 -1 -32 -21
-12 -17 -26 -29 -31 -25 -5 3 0 18 11 34 24 33 25 40 6 40 -8 0 -24 -16 -36
-35 -12 -19 -26 -32 -31 -29 -6 3 -4 15 5 30 9 13 23 35 32 49 9 14 18 25 21
25 2 0 24 -14 49 -30z m-149 -172 c29 -28 36 -31 53 -20 49 31 39 2 -16 -43
-45 -37 -72 -42 -41 -7 16 17 15 20 -13 47 -28 27 -40 55 -23 55 4 0 22 -15
40 -32z m-929 -47 c3 -8 -1 -12 -9 -9 -7 2 -15 10 -17 17 -3 8 1 12 9 9 7 -2
15 -10 17 -17z m814 -26 c-2 -5 -9 -9 -15 -7 -21 6 -57 -9 -57 -23 0 -18 -3
-17 38 -6 43 13 62 5 62 -25 0 -32 -51 -60 -81 -43 -17 9 -19 13 -8 19 7 5 17
6 21 4 12 -8 48 6 48 17 0 6 -18 8 -46 3 -34 -5 -48 -3 -55 7 -13 20 -11 27
12 50 21 21 88 24 81 4z m-140 -126 c3 -31 1 -33 -47 -45 -61 -16 -65 -17 -65
-4 0 5 20 15 45 21 26 7 45 17 45 25 0 17 -5 17 -48 5 -24 -7 -32 -7 -32 4 0
7 16 16 36 19 21 4 34 12 31 19 -3 7 -8 11 -13 10 -5 -1 -26 -4 -46 -8 -45 -8
-54 11 -10 21 15 3 38 9 52 14 21 6 27 3 37 -21 7 -16 14 -43 15 -60z m-395
57 c-3 -8 -9 -30 -12 -49 -6 -31 -4 -35 21 -41 18 -5 24 -10 17 -17 -13 -13
-115 12 -121 29 -3 9 5 12 24 10 26 -3 29 1 38 40 5 26 14 42 23 42 9 0 13 -6
10 -14z m108 -16 c3 -5 22 -10 41 -10 19 0 34 5 34 10 0 6 7 10 15 10 20 0 20
0 -12 -65 -16 -32 -34 -55 -43 -55 -20 1 -75 120 -55 120 8 0 17 -4 20 -10z"/>
<path d="M976 1585 c-8 -22 -3 -28 19 -23 14 3 14 5 2 22 -13 18 -14 18 -21 1z"/>
<path d="M1565 1261 c-7 -13 14 -59 31 -65 23 -9 26 12 7 44 -18 31 -28 37
-38 21z"/>
<path d="M1622 1068 c-30 -30 -2 -92 39 -86 19 2 25 10 27 34 5 48 -37 81 -66
52z"/>
<path d="M191 726 c-15 -18 -4 -64 19 -76 13 -7 24 -5 40 8 20 16 21 23 13 48
-11 33 -52 45 -72 20z"/>
<path d="M254 516 c-9 -22 22 -67 41 -60 13 5 13 9 0 34 -19 37 -34 46 -41 26z"/>
<path d="M920 106 c0 -22 17 -28 24 -10 9 22 8 24 -9 24 -8 0 -15 -6 -15 -14z"/>
</g>
</svg>
