<?xml version="1.0" standalone="no"?>
<!DOCTYPE svg PUBLIC "-//W3C//DTD SVG 20010904//EN"
 "http://www.w3.org/TR/2001/REC-SVG-20010904/DTD/svg10.dtd">
<svg version="1.0" xmlns="http://www.w3.org/2000/svg"
 width="60" height="60" viewBox="0 0 259.000000 194.000000"
 preserveAspectRatio="xMidYMid meet">

<g transform="translate(0.000000,194.000000) scale(0.100000,-0.100000)"
fill="#000000" stroke="none">
<path d="M875 1381 c-33 -4 -75 -15 -92 -25 -68 -35 -93 -142 -93 -396 1 -238
24 -335 89 -373 53 -31 193 -39 591 -35 399 5 411 7 463 56 50 48 61 111 61
352 1 240 -10 311 -52 361 -52 63 -56 63 -502 65 -223 1 -432 -1 -465 -5z
m461 -312 c102 -54 152 -85 146 -91 -6 -6 -78 -45 -161 -88 l-151 -77 0 169
c0 92 2 168 5 168 3 0 75 -37 161 -81z"/>
</g>
</svg>
